<svg xmlns="http://www.w3.org/2000/svg" xmlns:xlink="http://www.w3.org/1999/xlink" width="45" height="32" viewBox="0 0 45 32"><defs><path id="j88va" d="M400.065 2058.3c0 1.532-1.233 2.778-2.748 2.778-1.516 0-2.75-1.246-2.75-2.778s1.234-2.778 2.75-2.778c.513 0 .928.42.928.938a.933.933 0 0 1-.928.939.898.898 0 0 0-.893.901c0 .497.4.902.893.902a.898.898 0 0 0 .892-.902c0-.518.415-.938.928-.938.513 0 .928.42.928.938zm26.464 0c0 1.532-1.233 2.778-2.748 2.778-1.516 0-2.75-1.246-2.75-2.778s1.234-2.778 2.75-2.778c.512 0 .928.42.928.938a.933.933 0 0 1-.928.939.898.898 0 0 0-.893.901c0 .497.4.902.893.902a.898.898 0 0 0 .892-.902c0-.518.415-.938.928-.938.512 0 .928.42.928.938zm6.488-12.458v12.458a.933.933 0 0 1-.929.938h-2.814c-.444 2.66-2.737 4.694-5.493 4.694-2.756 0-5.05-2.034-5.494-4.694H402.81c-.444 2.66-2.737 4.694-5.493 4.694-2.756 0-5.05-2.034-5.494-4.694h-1.937a1.869 1.869 0 0 1-1.856-1.876v-23.49c0-1.035.833-1.876 1.856-1.876h25.551c1.024 0 1.857.841 1.857 1.876v1.905h7.12c.082 0 .162.011.237.031 2.305.203 3.457 1.405 4.678 3.463l3.559 6.094c.084.144.129.31.129.477zm-3.665 4.026h1.808v-1.846h-.88a.934.934 0 0 0-.928.938zm-1.515-9.459h-6.898v3.759c0 .528.425.957.947.957.065 0 .128.007.19.02h8.527zm-37.95 16.953h1.936c.444-2.66 2.738-4.693 5.494-4.693s5.05 2.033 5.493 4.693h12.627v-23.49h-25.55zm11.145.938c0-2.07-1.666-3.755-3.715-3.755s-3.716 1.685-3.716 3.755 1.667 3.755 3.716 3.755c2.049 0 3.715-1.684 3.715-3.755zm26.464 0c0-2.07-1.667-3.755-3.715-3.755-2.05 0-3.716 1.685-3.716 3.755s1.667 3.755 3.716 3.755c2.048 0 3.715-1.684 3.715-3.755zm1.778-.938h1.886v-5.618h-2.736a.933.933 0 0 1-.928-.937v-1.848c0-.75.293-1.433.769-1.938h-6.379a.925.925 0 0 1-.23-.029c-1.439-.118-2.574-1.34-2.574-2.824v-4.697c0-.518.416-.938.929-.938h6.483c-.653-.627-1.393-.88-2.578-.88h-6.622v19.709h.993c.443-2.66 2.737-4.693 5.494-4.693 2.756 0 5.05 2.033 5.493 4.693zm-37.492-20.647c0-.518.415-.938.928-.938h19.903c.513 0 .929.42.929.938a.933.933 0 0 1-.929.939H392.71a.933.933 0 0 1-.928-.939z"/></defs><g><g transform="translate(-388 -2032)"><use fill="#f16d7f" xlink:href="#j88va"/></g></g></svg>