<svg xmlns="http://www.w3.org/2000/svg" xmlns:xlink="http://www.w3.org/1999/xlink" width="47" height="35" viewBox="0 0 47 35"><defs><path id="n1vga" d="M1213.033 2045.064c0 2.13-1.515 3.909-3.547 4.394v12.29c0 .087-.028.16-.05.242.03.123.05.252.05.387 0 4.412-17.922 4.542-19.962 4.542-2.043 0-19.962-.13-19.962-4.542 0-.135.018-.264.05-.387-.019-.082-.05-.155-.05-.242v-12.29c-2.028-.485-3.547-2.265-3.547-4.394 0-2.498 2.087-4.532 4.647-4.532 2.561 0 4.644 2.034 4.644 4.532 0 1.34-.606 2.535-1.558 3.366l5.858 2.055 8.353-9.697c-1.77-.641-3.045-2.291-3.045-4.242 0-2.5 2.085-4.536 4.645-4.536 2.562 0 4.645 2.036 4.645 4.536 0 1.97-1.3 3.63-3.097 4.257l8.339 9.682 5.86-2.055c-.952-.831-1.56-2.026-1.56-3.366 0-2.498 2.084-4.532 4.647-4.532 2.56 0 4.643 2.034 4.64 4.532zm-23.473-6.188c1.313 0 2.384-1.044 2.384-2.328 0-1.285-1.071-2.33-2.384-2.33-1.315 0-2.386 1.045-2.386 2.33 0 1.284 1.07 2.328 2.386 2.328zm-17.738 11.222v9.938c4.883-2.121 16.11-2.2 17.702-2.2 1.593 0 12.817.079 17.702 2.2v-9.937l-7.758 2.726c-.444.15-.942.021-1.245-.332l-8.698-10.1-8.696 10.1a1.156 1.156 0 0 1-1.246.33zm34.264 12.753c.453-.166.791-.327.994-.474-.72-.52-3.06-1.232-6.965-1.731-2.754-.354-6.279-.604-10.588-.604-4.309 0-7.833.25-10.587.604-3.905.499-6.244 1.21-6.966 1.731.203.143.542.308.996.474 2.308.85 7.852 1.862 16.557 1.862 8.708 0 14.252-1.011 16.559-1.862zm-35.42-15.457c1.315 0 2.385-1.045 2.385-2.33 0-1.282-1.07-2.326-2.385-2.326-1.315 0-2.386 1.044-2.386 2.326 0 1.285 1.07 2.33 2.386 2.33zm40.113-2.33c0-1.282-1.074-2.326-2.386-2.326-1.316 0-2.387 1.044-2.387 2.326 0 1.285 1.071 2.33 2.387 2.33 1.312 0 2.383-1.045 2.386-2.33z"/></defs><g><g transform="translate(-1166 -2032)"><use fill="#f16d7f" xlink:href="#n1vga"/></g></g></svg>